<?xml version="1.0" encoding="UTF-8" standalone="no"?>
<!DOCTYPE svg PUBLIC "-//W3C//DTD SVG 1.1//EN" "http://www.w3.org/Graphics/SVG/1.1/DTD/svg11.dtd">
<!-- Created with Vectornator (http://vectornator.io/) -->
<svg height="100%" stroke-miterlimit="10" style="fill-rule:nonzero;clip-rule:evenodd;stroke-linecap:round;stroke-linejoin:round;" version="1.1" viewBox="0 0 901.309 152.12" width="100%" xml:space="preserve" xmlns="http://www.w3.org/2000/svg" xmlns:vectornator="http://vectornator.io" xmlns:xlink="http://www.w3.org/1999/xlink">
<defs/>
<g id="Layer-1" vectornator:layerName="Layer 1">
<g fill="#000000" opacity="1" stroke="none" vectornator:layerName="Text 1">
<path d="M41.34 93.24C44.1133 93.24 46.54 92.9467 48.62 92.36C50.7 91.7733 52.6733 90.7067 54.54 89.16C56.4067 87.6133 57.9267 85.56 59.1 83C60.2733 80.44 61.2067 77.16 61.9 73.16C62.5933 69.16 62.94 64.44 62.94 59C62.94 52.92 62.4067 47.7733 61.34 43.56C60.2733 39.3467 58.7267 36.1467 56.7 33.96C54.6733 31.7733 52.46 30.2267 50.06 29.32C47.66 28.4133 44.7533 27.9067 41.34 27.8L41.34 93.24ZM46.14 5.56C62.78 5.56 76.14 10.36 86.22 19.96C96.3 29.56 101.34 42.7867 101.34 59.64C101.34 65.08 100.833 70.36 99.82 75.48C98.8067 80.6 97.1267 85.5867 94.78 90.44C92.4333 95.2933 89.5 99.5067 85.98 103.08C82.46 106.653 77.98 109.533 72.54 111.72C67.1 113.907 60.9667 115 54.14 115L22.62 115C16.1133 115 11.4467 113.347 8.62 110.04C5.79333 106.733 4.38 100.76 4.38 92.12L4.38 24.6C4.38 11.9067 10.46 5.56 22.62 5.56L46.14 5.56Z"/>
<path d="M115.58 16.44C115.58 12.92 117.1 10.0133 120.14 7.72C123.18 5.42667 127.473 4.28 133.02 4.28C144.647 4.28 150.46 8.33333 150.46 16.44C150.46 20.92 148.993 24.0667 146.06 25.88C143.127 27.6933 138.78 28.6 133.02 28.6C128.007 28.6 123.847 27.64 120.54 25.72C117.233 23.8 115.58 20.7067 115.58 16.44ZM150.3 97.88C150.3 104.28 148.967 108.733 146.3 111.24C143.633 113.747 138.94 115 132.22 115C125.927 115 121.633 113.533 119.34 110.6C117.047 107.667 115.9 102.84 115.9 96.12L115.9 56.76C115.9 51.32 117.367 46.9467 120.3 43.64C123.233 40.3333 127.153 38.68 132.06 38.68C137.82 38.68 142.3 39.9333 145.5 42.44C148.7 44.9467 150.3 49.56 150.3 56.28L150.3 97.88Z"/>
<path d="M193.98 115.96C185.553 115.96 178.567 112.52 173.02 105.64C167.473 98.76 164.7 89.2933 164.7 77.24C164.7 65.08 167.42 55.4267 172.86 48.28C178.3 41.1333 185.287 37.56 193.82 37.56C202.46 37.56 210.46 40.5467 217.82 46.52C220.593 41.2933 225.18 38.68 231.58 38.68C237.34 38.68 241.847 39.96 245.1 42.52C248.353 45.08 249.98 49.6667 249.98 56.28L249.98 85.56C249.98 95.9067 249.313 104.787 247.98 112.2C246.647 119.613 244.353 126.147 241.1 131.8C237.847 137.453 233.367 141.667 227.66 144.44C221.953 147.213 214.94 148.6 206.62 148.6C200.86 148.6 195.527 147.8 190.62 146.2C185.713 144.6 181.82 142.627 178.94 140.28C176.06 137.933 173.82 135.587 172.22 133.24C170.62 130.893 169.82 128.867 169.82 127.16C169.82 125.133 170.407 123.427 171.58 122.04C172.753 120.653 174.407 119.96 176.54 119.96C177.82 119.96 181.047 121.347 186.22 124.12C191.393 126.893 195.58 128.28 198.78 128.28C209.66 128.28 215.1 122.68 215.1 111.48C208.913 114.467 201.873 115.96 193.98 115.96ZM215.74 91.96L215.58 61.72C213.767 58.7333 211.473 57.24 208.7 57.24C206.78 57.24 205.1 58.2533 203.66 60.28C202.22 62.3067 201.153 64.8133 200.46 67.8C199.767 70.7867 199.42 73.9333 199.42 77.24C199.42 82.2533 200.22 86.6533 201.82 90.44C203.42 94.2267 205.66 96.12 208.54 96.12C211.42 96.12 213.82 94.7333 215.74 91.96Z"/>
<path d="M264.22 16.44C264.22 12.92 265.74 10.0133 268.78 7.72C271.82 5.42667 276.113 4.28 281.66 4.28C293.287 4.28 299.1 8.33333 299.1 16.44C299.1 20.92 297.633 24.0667 294.7 25.88C291.767 27.6933 287.42 28.6 281.66 28.6C276.647 28.6 272.487 27.64 269.18 25.72C265.873 23.8 264.22 20.7067 264.22 16.44ZM298.94 97.88C298.94 104.28 297.607 108.733 294.94 111.24C292.273 113.747 287.58 115 280.86 115C274.567 115 270.273 113.533 267.98 110.6C265.687 107.667 264.54 102.84 264.54 96.12L264.54 56.76C264.54 51.32 266.007 46.9467 268.94 43.64C271.873 40.3333 275.793 38.68 280.7 38.68C286.46 38.68 290.94 39.9333 294.14 42.44C297.34 44.9467 298.94 49.56 298.94 56.28L298.94 97.88Z"/>
<path d="M321.5 80.76L321.5 61.88C318.833 61.7733 316.7 61.32 315.1 60.52C313.5 59.72 312.353 58.68 311.66 57.4C310.967 56.12 310.62 54.52 310.62 52.6C310.62 46.52 314.3 43.2133 321.66 42.68L321.66 27.8C321.66 23.7467 324.593 20.0933 330.46 16.84C336.327 13.5867 342.14 11.96 347.9 11.96C351.42 11.96 353.713 12.9733 354.78 15C355.847 17.0267 356.38 20.0667 356.38 24.12L356.54 42.52L360.86 42.52C366.727 42.52 370.753 43.2933 372.94 44.84C375.127 46.3867 376.22 49.1867 376.22 53.24C376.22 54.9467 375.9 56.3867 375.26 57.56C374.62 58.7333 373.58 59.64 372.14 60.28C370.7 60.92 368.967 61.3733 366.94 61.64C364.913 61.9067 362.407 62.04 359.42 62.04L356.54 62.04L356.54 79.64C356.54 81.3467 356.62 82.76 356.78 83.88C356.94 85 357.18 85.88 357.5 86.52C357.82 87.16 358.273 87.5867 358.86 87.8C359.447 88.0133 360.167 88.12 361.02 88.12C362.3 88.12 363.367 87.6667 364.22 86.76C365.073 85.8533 365.74 84.84 366.22 83.72C366.7 82.6 367.34 81.5867 368.14 80.68C368.94 79.7733 369.873 79.32 370.94 79.32C373.393 79.32 375.287 79.9067 376.62 81.08C377.953 82.2533 378.62 83.6933 378.62 85.4C378.62 88.28 378.06 91.3733 376.94 94.68C375.82 97.9867 374.193 101.187 372.06 104.28C369.927 107.373 366.967 109.933 363.18 111.96C359.393 113.987 355.153 115 350.46 115C339.9 115 332.433 112.333 328.06 107C323.687 101.667 321.5 92.92 321.5 80.76Z"/>
<path d="M419.9 115.96C411.473 115.96 404.487 112.52 398.94 105.64C393.393 98.76 390.62 89.3467 390.62 77.4C390.62 65.24 393.367 55.56 398.86 48.36C404.353 41.16 411.367 37.56 419.9 37.56C428.54 37.56 436.54 40.6 443.9 46.68C446.78 41.3467 451.42 38.68 457.82 38.68C463.58 38.68 468.06 39.9333 471.26 42.44C474.46 44.9467 476.06 49.56 476.06 56.28L476.06 97.88C476.06 104.28 474.727 108.733 472.06 111.24C469.393 113.747 464.7 115 457.98 115C450.94 115 446.3 113.027 444.06 109.08C437.233 113.667 429.18 115.96 419.9 115.96ZM441.66 62.04C439.847 58.9467 437.5 57.4 434.62 57.4C431.847 57.4 429.607 59.4267 427.9 63.48C426.193 67.5333 425.34 72.1733 425.34 77.4C425.34 82.3067 426.14 86.68 427.74 90.52C429.34 94.36 431.58 96.28 434.46 96.28C437.447 96.28 439.847 94.84 441.66 91.96L441.66 62.04Z"/>
<path d="M526.3 90.84C526.3 99.48 524.86 105.667 521.98 109.4C519.1 113.133 514.673 115 508.7 115C502.727 115 498.353 113.32 495.58 109.96C492.807 106.6 491.42 100.653 491.42 92.12L491.1 24.6C491.1 21.8267 491.393 19.3733 491.98 17.24C492.567 15.1067 493.367 13.2933 494.38 11.8C495.393 10.3067 496.647 9.08 498.14 8.12C499.633 7.16 501.26 6.46667 503.02 6.04C504.78 5.61333 506.673 5.4 508.7 5.4C514.567 5.4 518.967 6.57333 521.9 8.92C524.833 11.2667 526.3 16.0133 526.3 23.16L526.3 90.84Z"/>
<path d="M604.86 36.28C604.86 31.8 603.127 28.7333 599.66 27.08C596.193 25.4267 590.407 24.6 582.3 24.6L582.3 49.08C587.313 49.08 591.393 48.7067 594.54 47.96C597.687 47.2133 600.193 45.9067 602.06 44.04C603.927 42.1733 604.86 39.5867 604.86 36.28ZM606.94 79C606.94 75.48 606.033 72.76 604.22 70.84C602.407 68.92 599.793 67.56 596.38 66.76C592.967 65.96 588.273 65.56 582.3 65.56L582.3 93.24C590.62 93.24 596.807 92.2 600.86 90.12C604.913 88.04 606.94 84.3333 606.94 79ZM626.62 58.04C636.54 63.9067 641.5 71.7467 641.5 81.56C641.5 85.8267 640.673 89.9067 639.02 93.8C637.367 97.6933 634.913 101.24 631.66 104.44C628.407 107.64 624.113 110.173 618.78 112.04C613.447 113.907 607.42 114.84 600.7 114.84L563.58 114.84C557.073 114.84 552.407 113.187 549.58 109.88C546.753 106.573 545.34 100.653 545.34 92.12L545.34 24.44C545.34 20.8133 545.98 17.6133 547.26 14.84C548.54 12.0667 550.593 9.82667 553.42 8.12C556.247 6.41333 559.633 5.56 563.58 5.56L600.22 5.56C610.887 5.66667 619.767 8.57333 626.86 14.28C633.953 19.9867 637.5 27.32 637.5 36.28C637.5 39.16 637.26 41.6933 636.78 43.88C636.3 46.0667 635.58 48.0133 634.62 49.72C633.66 51.4267 632.54 52.92 631.26 54.2C629.98 55.48 628.433 56.76 626.62 58.04Z"/>
<path d="M684.54 115.96C676.113 115.96 669.127 112.52 663.58 105.64C658.033 98.76 655.26 89.3467 655.26 77.4C655.26 65.24 658.007 55.56 663.5 48.36C668.993 41.16 676.007 37.56 684.54 37.56C693.18 37.56 701.18 40.6 708.54 46.68C711.42 41.3467 716.06 38.68 722.46 38.68C728.22 38.68 732.7 39.9333 735.9 42.44C739.1 44.9467 740.7 49.56 740.7 56.28L740.7 97.88C740.7 104.28 739.367 108.733 736.7 111.24C734.033 113.747 729.34 115 722.62 115C715.58 115 710.94 113.027 708.7 109.08C701.873 113.667 693.82 115.96 684.54 115.96ZM706.3 62.04C704.487 58.9467 702.14 57.4 699.26 57.4C696.487 57.4 694.247 59.4267 692.54 63.48C690.833 67.5333 689.98 72.1733 689.98 77.4C689.98 82.3067 690.78 86.68 692.38 90.52C693.98 94.36 696.22 96.28 699.1 96.28C702.087 96.28 704.487 94.84 706.3 91.96L706.3 62.04Z"/>
<path d="M790.14 97.88C790.14 104.28 788.807 108.733 786.14 111.24C783.473 113.747 778.727 115 771.9 115C765.607 115 761.34 113.533 759.1 110.6C756.86 107.667 755.74 102.84 755.74 96.12L755.74 56.76C755.74 53.1333 756.38 49.96 757.66 47.24C758.94 44.52 760.807 42.4133 763.26 40.92C765.713 39.4267 768.593 38.68 771.9 38.68C780.007 38.68 785.34 41.0267 787.9 45.72C794.087 41.0267 800.06 38.68 805.82 38.68C817.02 38.68 822.62 44.0133 822.62 54.68C822.62 58.9467 821.393 62.4133 818.94 65.08C816.487 67.7467 813.287 69.08 809.34 69.08C806.993 69.08 805.1 68.6 803.66 67.64C802.22 66.68 800.887 65.72 799.66 64.76C798.433 63.8 797.02 63.32 795.42 63.32C793.073 63.32 791.313 64.12 790.14 65.72L790.14 97.88Z"/>
<path d="M840.86 80.76L840.86 61.88C838.193 61.7733 836.06 61.32 834.46 60.52C832.86 59.72 831.713 58.68 831.02 57.4C830.327 56.12 829.98 54.52 829.98 52.6C829.98 46.52 833.66 43.2133 841.02 42.68L841.02 27.8C841.02 23.7467 843.953 20.0933 849.82 16.84C855.687 13.5867 861.5 11.96 867.26 11.96C870.78 11.96 873.073 12.9733 874.14 15C875.207 17.0267 875.74 20.0667 875.74 24.12L875.9 42.52L880.22 42.52C886.087 42.52 890.113 43.2933 892.3 44.84C894.487 46.3867 895.58 49.1867 895.58 53.24C895.58 54.9467 895.26 56.3867 894.62 57.56C893.98 58.7333 892.94 59.64 891.5 60.28C890.06 60.92 888.327 61.3733 886.3 61.64C884.273 61.9067 881.767 62.04 878.78 62.04L875.9 62.04L875.9 79.64C875.9 81.3467 875.98 82.76 876.14 83.88C876.3 85 876.54 85.88 876.86 86.52C877.18 87.16 877.633 87.5867 878.22 87.8C878.807 88.0133 879.527 88.12 880.38 88.12C881.66 88.12 882.727 87.6667 883.58 86.76C884.433 85.8533 885.1 84.84 885.58 83.72C886.06 82.6 886.7 81.5867 887.5 80.68C888.3 79.7733 889.233 79.32 890.3 79.32C892.753 79.32 894.647 79.9067 895.98 81.08C897.313 82.2533 897.98 83.6933 897.98 85.4C897.98 88.28 897.42 91.3733 896.3 94.68C895.18 97.9867 893.553 101.187 891.42 104.28C889.287 107.373 886.327 109.933 882.54 111.96C878.753 113.987 874.513 115 869.82 115C859.26 115 851.793 112.333 847.42 107C843.047 101.667 840.86 92.92 840.86 80.76Z"/>
</g>
</g>
</svg>
